<svg width="10" height="10" viewBox="0 0 10 10" fill="none" xmlns="http://www.w3.org/2000/svg">
<path fill-rule="evenodd" clip-rule="evenodd" d="M5 0.5C2.51472 0.5 0.5 2.51472 0.5 5C0.5 7.48528 2.51472 9.5 5 9.5C7.48528 9.5 9.5 7.48528 9.5 5C9.49731 2.51583 7.48417 0.502687 5 0.5ZM5 7.625C4.68934 7.625 4.4375 7.37316 4.4375 7.0625C4.4375 6.75184 4.68934 6.5 5 6.5C5.31066 6.5 5.5625 6.75184 5.5625 7.0625C5.5625 7.37316 5.31066 7.625 5 7.625ZM5.375 5.68887C5.37493 5.5397 5.46328 5.40467 5.6 5.345C6.28663 5.04533 6.64687 4.28537 6.4439 3.56422C6.24094 2.84307 5.537 2.38224 4.79487 2.48469C4.05274 2.58714 3.49999 3.22145 3.5 3.97062C3.5 4.17773 3.66789 4.34562 3.875 4.34562C4.08211 4.34562 4.25 4.17773 4.25 3.97062C4.24981 3.59599 4.52609 3.27867 4.89719 3.22732C5.26828 3.17596 5.62036 3.40632 5.72192 3.76693C5.82347 4.12753 5.64336 4.50777 5.3 4.65762C4.88996 4.83658 4.62493 5.24149 4.625 5.68887C4.625 5.89598 4.79289 6.06387 5 6.06387C5.20711 6.06387 5.375 5.89598 5.375 5.68887Z" fill="#8D909E"/>
</svg>
