<svg width="350" height="221" viewBox="0 0 350 221" fill="none" xmlns="http://www.w3.org/2000/svg">
<g clip-path="url(#clip0_3_33)">
<path d="M214.156 221H136.174C133.969 221 132.175 218.334 132.175 215.058V5.94217C132.175 2.66584 133.969 0 136.174 0H214.156C216.361 0 218.155 2.66584 218.155 5.94217V215.058C218.155 218.334 216.361 221 214.156 221ZM166.654 0.992302C147.98 0.992302 132.843 23.4833 132.843 51.2274V215.058C132.843 217.792 134.334 220.008 136.174 220.008H214.156C215.996 220.008 217.488 217.792 217.488 215.058V5.94217C217.488 3.20843 215.996 0.992297 214.156 0.992297L166.654 0.992302Z" fill="#E6E6E6"/>
<path d="M217.751 55.1081C217.751 55.4623 218.018 55.7466 218.351 55.7466H321.38C321.713 55.7466 321.98 55.4623 321.98 55.1081C321.98 54.7539 321.713 54.4695 321.38 54.4695H218.351C218.018 54.4695 217.751 54.7539 217.751 55.1081Z" fill="#E6E6E6"/>
<path d="M133.958 146.304L134.978 186.451H132.496V190.996H139.433V186.451H137.41L137.554 146.304H133.958Z" fill="#3F3D56"/>
<path d="M131.282 180.013C132.338 180.013 133.194 181.284 133.194 182.853V194.594C133.194 196.163 132.338 197.435 131.282 197.435C130.226 197.435 129.37 196.163 129.37 194.594V182.853C129.37 181.284 130.226 180.013 131.282 180.013Z" fill="#3F3D56"/>
<path d="M140.969 180.013C142.025 180.013 142.881 181.284 142.881 182.853V194.594C142.881 196.163 142.025 197.435 140.969 197.435C139.913 197.435 139.057 196.163 139.057 194.594V182.853C139.057 181.284 139.913 180.013 140.969 180.013Z" fill="#3F3D56"/>
<path d="M156.519 121.291L117.261 118.639L123.379 114.473L157.793 115.231L156.519 121.291Z" fill="#5885BC"/>
<path d="M0 127.178L4.74104 124.527L151.93 130.208L158.048 126.041L155.499 151.796L38.5802 133.286L0 127.178Z" fill="#5885BC"/>
<path d="M37.8551 142.138L38.5802 133.286L155.499 151.796L154.862 164.863L37.8551 142.138Z" fill="#3F3D56"/>
<path d="M116.497 168.272C123.184 168.272 128.605 159.708 128.605 149.145C128.605 138.582 123.184 130.018 116.497 130.018C109.809 130.018 104.388 138.582 104.388 149.145C104.388 159.708 109.809 168.272 116.497 168.272Z" fill="#3F3D56"/>
<path d="M116.497 158.992C121.424 158.992 125.419 153.057 125.419 145.736C125.419 138.415 121.424 132.48 116.497 132.48C111.569 132.48 107.575 138.415 107.575 145.736C107.575 153.057 111.569 158.992 116.497 158.992Z" fill="#5885BC"/>
<path d="M216.042 146.304L215.022 186.451H217.504V190.996H210.567V186.451H212.59L212.446 146.304H216.042Z" fill="#3F3D56"/>
<path d="M218.718 180.013H218.718C217.662 180.013 216.806 181.284 216.806 182.853V194.594C216.806 196.163 217.662 197.435 218.718 197.435H218.718C219.774 197.435 220.63 196.163 220.63 194.594V182.853C220.63 181.284 219.774 180.013 218.718 180.013Z" fill="#3F3D56"/>
<path d="M209.031 180.013H209.031C207.975 180.013 207.12 181.284 207.12 182.853V194.594C207.12 196.163 207.975 197.435 209.031 197.435H209.031C210.087 197.435 210.943 196.163 210.943 194.594V182.853C210.943 181.284 210.087 180.013 209.031 180.013Z" fill="#3F3D56"/>
<path d="M193.481 121.291L232.738 118.639L226.62 114.473L192.207 115.231L193.481 121.291Z" fill="#5885BC"/>
<path d="M179.43 113.131L177.646 54.804L174.842 63.8938L175.352 115.024L179.43 113.131Z" fill="#5885BC"/>
<path d="M350 127.178L345.259 124.527L198.07 130.208L191.952 126.041L194.501 151.796L311.42 133.286L350 127.178Z" fill="#5885BC"/>
<path d="M312.145 142.138L311.42 133.286L194.501 151.796L195.138 164.863L312.145 142.138Z" fill="#3F3D56"/>
<path d="M233.503 168.272C240.191 168.272 245.612 159.708 245.612 149.145C245.612 138.582 240.191 130.018 233.503 130.018C226.816 130.018 221.395 138.582 221.395 149.145C221.395 159.708 226.816 168.272 233.503 168.272Z" fill="#3F3D56"/>
<path d="M233.503 158.992C238.431 158.992 242.425 153.057 242.425 145.736C242.425 138.415 238.431 132.48 233.503 132.48C228.576 132.48 224.581 138.415 224.581 145.736C224.581 153.057 228.576 158.992 233.503 158.992Z" fill="#5885BC"/>
<path d="M197.241 114.025L196.663 120.36L196.362 154.462C196.339 157 196.133 159.507 195.745 161.939C194.629 169.021 192.021 175.464 188.169 180.134C184.674 184.376 179.907 187.587 173.598 187.019C156.774 185.504 155.287 164.23 155.287 164.23L155.922 125.651L156.009 120.36L156.774 110.813C156.774 110.813 158.813 83.9225 177.677 84.68C196.54 85.4375 197.241 114.025 197.241 114.025Z" fill="#5885BC"/>
<path d="M160.852 105.132L164.676 96.0423L169.519 93.7699H186.089L190.168 96.0423L193.869 105.132L187.109 100.587H168.144L160.852 105.132Z" fill="#E6E6E6"/>
<path d="M174.874 170.483L175.529 196.237H173.936V199.153H178.387V196.237H177.089L177.181 170.483H174.874Z" fill="#3F3D56"/>
<path d="M173.157 192.107C173.835 192.107 174.384 192.923 174.384 193.929V201.461C174.384 202.467 173.835 203.283 173.157 203.283C172.48 203.283 171.931 202.467 171.931 201.461V193.929C171.931 192.923 172.48 192.107 173.157 192.107Z" fill="#3F3D56"/>
<path d="M179.372 192.107C180.049 192.107 180.598 192.923 180.598 193.929V201.461C180.598 202.467 180.049 203.283 179.372 203.283C178.694 203.283 178.145 202.467 178.145 201.461V193.929C178.145 192.923 178.694 192.107 179.372 192.107Z" fill="#3F3D56"/>
<path d="M170.129 88.1873L166.608 107.026L167.286 107.306L170.808 88.4673L170.129 88.1873Z" fill="#5885BC"/>
<path d="M186.1 91.193L185.408 91.3948L187.946 110.58L188.637 110.378L186.1 91.193Z" fill="#5885BC"/>
<path d="M258.667 61.0968C261.196 61.0968 263.246 58.0511 263.246 54.294C263.246 50.5369 261.196 47.4911 258.667 47.4911C256.139 47.4911 254.089 50.5369 254.089 54.294C254.089 58.0511 256.139 61.0968 258.667 61.0968Z" fill="#5885BC"/>
<path d="M131.938 83.3645C134.467 83.3645 136.517 80.3188 136.517 76.5617C136.517 72.8045 134.467 69.7588 131.938 69.7588C129.409 69.7588 127.359 72.8045 127.359 76.5617C127.359 80.3188 129.409 83.3645 131.938 83.3645Z" fill="#5885BC"/>
<path d="M28.2626 204.248C28.2626 204.602 28.5299 204.886 28.8628 204.886H131.892C132.225 204.886 132.492 204.602 132.492 204.248C132.492 203.894 132.225 203.609 131.892 203.609H28.8628C28.5299 203.609 28.2626 203.894 28.2626 204.248Z" fill="#E6E6E6"/>
<path d="M69.1794 210.237C71.7082 210.237 73.7581 207.191 73.7581 203.434C73.7581 199.677 71.7082 196.631 69.1794 196.631C66.6507 196.631 64.6007 199.677 64.6007 203.434C64.6007 207.191 66.6507 210.237 69.1794 210.237Z" fill="#5885BC"/>
</g>
<defs>
<clipPath id="clip0_3_33">
<rect width="350" height="221" fill="white"/>
</clipPath>
</defs>
</svg>
