<svg width="336" height="377" viewBox="0 0 336 377" fill="none" xmlns="http://www.w3.org/2000/svg">
<g clip-path="url(#clip0_3_116)">
<path d="M330.101 369.485C328.201 371.918 325.845 373.998 323.152 375.62C322.579 375.965 321.991 376.29 321.392 376.591H307.314C307.483 376.271 307.646 375.945 307.805 375.62C312.17 366.871 313.539 357.042 311.719 347.516C309.899 337.989 304.982 329.244 297.659 322.509C306.168 325.006 314.034 329.873 319.178 336.776C321.678 340.137 323.456 343.933 324.41 347.948C325.26 339.919 323.909 331.818 320.487 324.433C327.396 329.771 332.776 337.082 334.827 345.31C336.877 353.543 335.389 362.68 330.101 369.485Z" fill="#F0F0F0"/>
<path d="M335.805 377H204.001V375.977H336L335.805 377Z" fill="#3F3D56"/>
<path d="M157.89 127.88C157.89 146.649 150.986 162.673 137.849 174.598C128.526 183.065 114.166 194.931 114.166 207.478V217.858H70.4426V207.478C70.4426 194.8 56.0266 182.909 46.7603 174.598C33.9193 163.091 26.719 145.979 26.719 127.88V127.496C26.7754 110.976 33.7379 95.1537 46.0751 83.5091C58.4123 71.8646 75.1139 65.3515 92.5064 65.4024C109.899 65.4533 126.558 72.064 138.819 83.7805C151.081 95.497 157.941 111.36 157.89 127.88Z" fill="#5885BC"/>
<path d="M114.166 219.315C113.759 219.315 113.369 219.162 113.081 218.889C112.793 218.615 112.632 218.245 112.632 217.858V207.476C112.632 195.272 125.303 183.879 134.556 175.56C135.323 174.869 136.071 174.2 136.787 173.547C149.587 161.924 156.353 146.133 156.353 127.881C156.353 93.7678 128.22 67.0454 92.3054 67.0454H92.1244C75.2228 67.0634 59.0162 73.4371 47.0481 84.7729C35.0801 96.1087 28.3242 111.484 28.2577 127.538V127.878C28.2577 145.753 35.3859 162.396 47.8157 173.541C48.4453 174.106 49.0993 174.687 49.7708 175.284C59.143 183.619 71.9788 195.033 71.9788 207.477V217.858C71.9788 218.245 71.8172 218.615 71.5294 218.889C71.2417 219.162 70.8515 219.315 70.4446 219.315C70.0378 219.315 69.6475 219.162 69.3598 218.889C69.0721 218.615 68.9105 218.245 68.9105 217.858V207.476C68.9105 196.297 56.6372 185.382 47.6736 177.409C46.999 176.81 46.3443 176.226 45.7093 175.658C32.6689 163.965 25.1894 146.55 25.1894 127.879V127.529C25.2917 92.534 55.3024 64.129 92.1198 64.129H92.3095C110.017 64.0416 127.035 70.639 139.621 82.4699C152.207 94.3008 159.329 110.396 159.421 127.215C159.422 127.437 159.422 127.659 159.421 127.881C159.421 146.948 152.327 163.468 138.908 175.653C138.188 176.308 137.437 176.982 136.665 177.677C127.818 185.631 115.698 196.526 115.698 207.476V217.858C115.698 218.245 115.537 218.615 115.249 218.889C114.961 219.162 114.571 219.315 114.164 219.315H114.166Z" fill="#3F3D56"/>
<path d="M106.879 238.014H77.7304C77.0523 238.014 76.4019 237.758 75.9224 237.303C75.4429 236.847 75.1735 236.229 75.1735 235.585C75.1735 234.941 75.4429 234.323 75.9224 233.868C76.4019 233.412 77.0523 233.157 77.7304 233.157H106.879C107.558 233.157 108.208 233.412 108.688 233.868C109.167 234.323 109.436 234.941 109.436 235.585C109.436 236.229 109.167 236.847 108.688 237.303C108.208 237.758 107.558 238.014 106.879 238.014Z" fill="#5885BC"/>
<path d="M95.4392 254.286H89.166C86.987 254.287 84.8488 253.725 82.9812 252.659C82.7043 252.505 82.4899 252.268 82.3722 251.985C82.2546 251.701 82.2406 251.389 82.3326 251.097C82.4167 250.798 82.603 250.533 82.8622 250.345C83.1214 250.157 83.439 250.055 83.7653 250.057H100.84C101.166 250.055 101.484 250.157 101.743 250.345C102.002 250.533 102.189 250.798 102.273 251.097C102.365 251.389 102.351 251.701 102.233 251.985C102.115 252.268 101.901 252.505 101.624 252.659C99.7564 253.725 97.6182 254.287 95.4392 254.286Z" fill="#3F3D56"/>
<path d="M106.884 245.686L77.5625 245.683L77.4716 245.498C77.3851 245.157 77.3815 244.803 77.4613 244.461C77.541 244.12 77.702 243.8 77.9318 243.526C78.1647 243.246 78.4618 243.019 78.8004 242.864C79.1391 242.708 79.5106 242.628 79.8868 242.628H104.719C105.095 242.628 105.466 242.708 105.805 242.864C106.144 243.019 106.441 243.246 106.674 243.527C106.902 243.796 107.062 244.112 107.143 244.449C107.223 244.786 107.222 245.136 107.14 245.473L107.093 245.661L106.884 245.686Z" fill="#3F3D56"/>
<path d="M24.495 70.6316C23.8769 70.6323 23.2796 70.4194 22.8145 70.0327L0.856056 51.8267C0.353031 51.4011 0.0471727 50.8041 0.00496606 50.1654C-0.0372405 49.5268 0.187618 48.8982 0.630654 48.4161C1.07369 47.934 1.69911 47.6375 2.37101 47.591C3.04291 47.5445 3.70699 47.7517 4.21894 48.1677L26.1774 66.3736C26.5696 66.6988 26.848 67.1299 26.9753 67.6093C27.1027 68.0888 27.0729 68.5937 26.89 69.0567C26.7071 69.5196 26.3798 69.9185 25.9518 70.2001C25.5238 70.4816 25.0155 70.6323 24.495 70.6321V70.6316Z" fill="#E4E4E4"/>
<path d="M156.473 70.6316C155.952 70.6318 155.444 70.4811 155.016 70.1996C154.588 69.9181 154.261 69.5192 154.078 69.0562C153.895 68.5933 153.865 68.0883 153.992 67.6089C154.12 67.1294 154.398 66.6983 154.79 66.3732L176.748 48.1658C177.26 47.7498 177.924 47.5426 178.596 47.5891C179.268 47.6356 179.894 47.9321 180.337 48.4142C180.78 48.8962 181.004 49.5249 180.962 50.1635C180.92 50.8022 180.614 51.3992 180.111 51.8248L158.153 70.0308C157.688 70.4181 157.091 70.6316 156.473 70.6316Z" fill="#E4E4E4"/>
<path d="M114.166 229.395H70.4421C69.7639 229.395 69.1136 229.139 68.634 228.683C68.1545 228.228 67.8851 227.61 67.8851 226.966C67.8851 226.322 68.1545 225.704 68.634 225.248C69.1136 224.793 69.7639 224.537 70.4421 224.537H114.166C114.844 224.537 115.494 224.793 115.974 225.248C116.453 225.704 116.723 226.322 116.723 226.966C116.723 227.61 116.453 228.228 115.974 228.683C115.494 229.139 114.844 229.395 114.166 229.395Z" fill="#5885BC"/>
<path d="M91.2305 165.947L82.138 217.858H76.9474L86.1831 165.151C86.2943 164.515 86.6669 163.947 87.2188 163.572C87.7707 163.197 88.4568 163.046 89.1261 163.152C89.7955 163.257 90.3932 163.611 90.7878 164.136C91.1825 164.66 91.3417 165.311 91.2305 165.947Z" fill="#E6E6E6"/>
<path d="M108.705 217.858H103.514L94.4216 165.947C94.3104 165.311 94.4696 164.66 94.8642 164.136C95.2589 163.611 95.8566 163.257 96.5259 163.152C97.1953 163.046 97.8814 163.197 98.4333 163.572C98.9852 163.947 99.3578 164.515 99.469 165.151L108.705 217.858Z" fill="#E6E6E6"/>
<path d="M75.6866 164.213C75.6866 163.569 75.956 162.951 76.4355 162.496C76.9151 162.04 77.5654 161.784 78.2436 161.784H106.366C107.044 161.784 107.695 162.04 108.174 162.496C108.654 162.951 108.923 163.569 108.923 164.213C108.923 164.857 108.654 165.475 108.174 165.93C107.695 166.386 107.044 166.642 106.366 166.642H78.2436C77.5654 166.642 76.9151 166.386 76.4355 165.93C75.956 165.475 75.6866 164.857 75.6866 164.213Z" fill="#E6E6E6"/>
<path d="M92.3049 46.388C91.6268 46.388 90.9764 46.1321 90.4969 45.6766C90.0174 45.2211 89.748 44.6034 89.748 43.9593V2.42869C89.748 1.78456 90.0174 1.16681 90.4969 0.711346C90.9764 0.255879 91.6268 0 92.3049 0C92.9831 0 93.6334 0.255879 94.113 0.711346C94.5925 1.16681 94.8619 1.78456 94.8619 2.42869V43.9593C94.8619 44.6034 94.5925 45.2211 94.113 45.6766C93.6334 46.1321 92.9831 46.388 92.3049 46.388Z" fill="#E4E4E4"/>
<path d="M301.319 370.205H295.051L292.068 347.235H301.32L301.319 370.205Z" fill="#FEB8B8"/>
<path d="M302.918 375.977H282.703V375.734C282.703 373.752 283.532 371.851 285.007 370.45C286.483 369.048 288.484 368.261 290.57 368.261H302.918L302.918 375.977Z" fill="#2F2E41"/>
<path d="M253.69 370.008L247.633 368.47L250.998 345.548L259.937 347.818L253.69 370.008Z" fill="#FEB8B8"/>
<path d="M253.665 375.977L234.136 371.017L234.202 370.782C234.741 368.867 236.059 367.234 237.865 366.242C239.672 365.25 241.82 364.98 243.836 365.492L255.764 368.522L253.665 375.977Z" fill="#2F2E41"/>
<path d="M304.926 241.478L310.178 247.274L303.386 365.037H288.879L281.566 274.422L258.886 367.467L243.805 363.954L257.518 245.774L304.926 241.478Z" fill="#2F2E41"/>
<path d="M261.024 165.448L275.469 158.564L297.682 158.935L316.797 168.226L305.921 219.82L310.619 246.72C292.461 251.119 273.45 251.267 255.218 247.154L255.073 247.121C255.073 247.121 265.87 210.731 261.274 199.626L261.024 165.448Z" fill="#E6E6E6"/>
<path d="M302.812 137.951C302.796 133.835 301.061 129.892 297.988 126.99C294.915 124.087 290.755 122.461 286.421 122.468C282.087 122.476 277.933 124.117 274.871 127.03C271.81 129.944 270.09 133.892 270.09 138.009C270.09 142.126 271.81 146.074 274.871 148.988C277.933 151.901 282.087 153.542 286.421 153.55C290.755 153.557 294.915 151.931 297.988 149.028C301.061 146.126 302.796 142.183 302.812 138.067V137.951Z" fill="#FEB8B8"/>
<path d="M259.031 203.064C259.341 203.823 259.824 204.507 260.443 205.069C261.063 205.632 261.804 206.058 262.616 206.319C263.428 206.579 264.29 206.668 265.142 206.578C265.993 206.488 266.814 206.221 267.545 205.797L296.875 220.524L297.824 213.738L269.325 197.775C268.494 196.655 267.259 195.863 265.854 195.55C264.45 195.237 262.973 195.424 261.704 196.076C260.435 196.728 259.462 197.8 258.969 199.088C258.476 200.376 258.498 201.79 259.03 203.064H259.031Z" fill="#FEB8B8"/>
<path d="M298.115 204.237C297.637 204.913 297.009 205.48 296.275 205.9C295.541 206.32 294.719 206.582 293.867 206.668C293.015 206.754 292.153 206.661 291.343 206.396C290.533 206.131 289.794 205.7 289.177 205.135L257.164 213.409L257.443 204.793L289.288 196.938C290.357 196.017 291.744 195.501 293.187 195.488C294.63 195.474 296.028 195.964 297.116 196.863C298.204 197.763 298.906 199.011 299.091 200.37C299.275 201.73 298.928 203.106 298.115 204.238L298.115 204.237Z" fill="#FEB8B8"/>
<path d="M310.555 168.6L316.797 168.228C316.797 168.228 324.105 177.387 320.051 187.325C320.051 187.325 320.754 223.027 304.569 221.56C288.384 220.093 283.269 220.094 283.269 220.094L288.128 207.222L298.996 204.034C298.996 204.034 295.646 189.999 301.987 184.16L310.555 168.6Z" fill="#E6E6E6"/>
<path d="M265.486 168.286L264.604 163.991C264.604 163.991 251.594 163.699 249.022 182.425C249.022 182.425 237.323 210.448 248.79 214.057C260.256 217.665 272.87 214.057 272.87 214.057L271.921 201.698L259.305 199.253C259.305 199.253 265.822 191.244 262.273 184.296L265.486 168.286Z" fill="#E6E6E6"/>
<path d="M292.116 145.583C290.913 145.134 289.58 145.158 288.308 144.936C283.76 144.14 280.253 139.736 280.685 135.362C280.793 134.796 280.803 134.216 280.714 133.646C280.399 132.399 278.939 131.729 277.597 131.579C276.256 131.43 274.87 131.621 273.565 131.289C271.55 130.777 270.045 129.031 269.535 127.111C269.1 125.157 269.327 123.123 270.183 121.299L270.809 122.539C271.46 121.883 271.904 121.066 272.091 120.182C272.637 120.21 273.168 120.371 273.63 120.649C274.093 120.927 274.472 121.314 274.733 121.772C275.541 122.115 275.442 120.36 276.248 120.013C276.611 119.93 276.994 119.977 277.322 120.146C279.098 120.711 280.982 119.862 282.742 119.254C285.79 118.203 289.056 117.849 292.275 118.219C294.414 118.467 296.573 119.068 298.238 120.366C299.553 121.498 300.622 122.863 301.386 124.385C303.44 128.032 304.988 132.055 304.945 136.193C304.904 139.58 303.807 142.879 301.793 145.674C300.744 147.124 297.354 152.155 295.102 151.601C292.272 150.907 295.504 146.845 292.116 145.583Z" fill="#2F2E41"/>
</g>
<defs>
<clipPath id="clip0_3_116">
<rect width="336" height="377" fill="white"/>
</clipPath>
</defs>
</svg>
