<svg width="348" height="243" viewBox="0 0 348 243" fill="none" xmlns="http://www.w3.org/2000/svg">
<g clip-path="url(#clip0_3_74)">
<path d="M320.6 59.0699C281.103 7.40186 197.667 -13.5569 115.61 9.01618C72.229 20.9499 30.4017 44.8609 9.67316 91.1603C-27.3814 173.925 50.4193 200.359 101.293 208.783C125.892 212.857 149.061 219.7 170.232 229.016C208.322 245.778 275.743 260.63 326.584 190.811C363.433 140.206 346.909 93.4858 320.6 59.0699Z" fill="#F2F2F2"/>
<path d="M91.6082 69.2921C91.4977 68.471 91.2742 67.6668 90.9434 66.8997C90.9012 66.7547 90.8274 66.6195 90.7266 66.5027C90.6257 66.386 90.5001 66.2903 90.3578 66.2217C90.1675 66.1752 89.968 66.1731 89.7767 66.2156L86.7932 66.6447C86.5435 66.6554 86.3044 66.7428 86.1125 66.8933C85.7239 67.2775 86.1065 67.8961 86.0947 68.4261C86.0813 69.0221 85.518 69.5058 84.9072 69.6659C84.2836 69.7843 83.6405 69.7768 83.0203 69.6439L78.8485 69.0344C80.0771 68.6657 81.1707 67.9797 82.0045 67.0546C82.5535 66.4432 82.8455 65.3018 82.0521 65.0123C81.8164 64.9515 81.5706 64.9329 81.3275 64.9576C79.4374 64.9714 77.9501 63.4879 76.1806 62.8631C75.0481 62.489 73.8188 62.4612 72.6685 62.7835C71.5181 63.1059 70.5057 63.762 69.7759 64.6579L71.9983 64.7586C72.2073 64.7478 72.4147 64.7998 72.5902 64.907C73.0773 65.2832 72.4718 66.0058 72.5404 66.5948C72.6295 67.3601 73.7104 67.5235 74.5252 67.6009C75.3401 67.6783 76.3738 68.3006 75.9818 68.9766C71.8864 70.3027 67.719 66.3844 63.418 66.8667C62.3294 66.9888 61.3015 67.3908 60.2387 67.6436C53.7464 69.1878 47.0346 65.0677 40.4024 65.9403C38.9279 66.1766 37.4788 66.5359 36.0722 67.0139C35.1696 67.2925 34.228 67.5936 33.5722 68.2397C32.9163 68.8859 32.6667 69.9909 33.288 70.6666C31.5755 70.7992 29.8515 70.6451 28.1962 70.2116C28.6438 70.4455 29.0162 70.7884 29.2743 71.2042C29.5323 71.6201 29.6665 72.0936 29.6628 72.575C26.9889 72.9849 24.3857 73.7311 21.9234 74.7934C22.383 75.5118 22.9197 76.184 23.5253 76.7994L20.1401 78.8438C21.2838 79.1147 21.8751 80.5807 21.21 81.4963C22.3959 81.0004 23.1308 79.7175 24.3989 79.4574C25.2296 79.2869 26.0749 79.6064 26.863 79.9065C27.6511 80.2067 28.5173 80.4977 29.3332 80.2724C30.149 80.0472 30.7508 79.0527 30.2324 78.4191C33.7195 77.4627 37.3234 76.9334 40.9547 76.8443C41.2348 76.8113 41.5189 76.862 41.7667 76.9892C42.2394 77.2975 42.1151 77.9634 42.0896 78.5037C42.0641 79.044 42.5121 79.7541 43.0258 79.5106C42.4214 80.0033 42.9381 80.9307 43.5179 81.4488C44.0977 81.9669 44.7966 82.6817 44.4416 83.3556C44.349 83.5315 44.1918 83.6722 44.1027 83.8497C43.8396 84.3736 44.2573 84.9843 44.7501 85.3322C45.2429 85.6801 45.8465 85.9232 46.1888 86.405C46.5311 86.8867 46.3757 87.73 45.7636 87.7972L44.0238 85.7207C43.4293 86.3001 43.0218 87.026 42.8485 87.8143C44.6934 89.2321 44.9709 92.1179 43.4264 93.8237C42.6371 94.6954 41.5146 95.2251 40.535 95.9051C39.5553 96.585 38.6488 97.5532 38.6513 98.698C38.6555 100.676 38.4836 102.513 39.272 104.347C40.7257 107.728 42.4041 111.019 44.2972 114.202C44.7943 115.038 45.4368 115.954 46.4439 116.098C45.1711 113.186 44.0254 110.227 43.0067 107.224C43.6702 107.226 44.437 107.276 44.8259 107.781C45.148 108.2 45.0788 108.769 45.1789 109.277C45.3062 109.769 45.5185 110.238 45.8072 110.665L51.8851 120.843C52.3889 121.686 52.9669 122.592 53.9298 122.934C54.5455 123.152 55.2578 123.111 55.8244 123.426C56.2686 123.672 56.5678 124.11 57.0206 124.342C58.3009 124.998 60.0813 123.739 61.2778 124.523C61.6199 124.747 61.8376 125.103 62.1528 125.36C63.2579 126.26 65.0707 125.658 66.3463 126.329C67.1685 126.761 67.5946 127.626 68.0331 128.41C69.1316 130.374 70.9089 132.298 73.263 132.454C74.0025 132.503 74.7578 132.371 75.4806 132.526C76.2035 132.68 76.915 133.273 76.799 133.962C76.6001 135.142 77.2202 136.434 77.0537 137.618C76.7503 139.776 73.495 140.724 73.2154 142.884C73.1542 143.357 73.25 143.845 73.1302 144.308C72.9833 144.876 72.53 145.338 72.3689 145.902C72.0637 146.971 72.8783 148.034 73.7731 148.753C74.668 149.472 75.7354 150.092 76.2247 151.099C76.7418 152.163 76.4878 153.404 76.656 154.563C77.0231 157.093 79.3479 158.969 81.7404 160.178C82.4694 160.547 83.2521 160.903 83.7239 161.543C84.3397 162.377 84.2783 163.477 84.484 164.474C84.9876 166.915 87.174 168.927 87.2361 171.414C87.2803 173.181 86.2352 174.784 85.611 176.452C85.0258 178.049 84.814 179.747 84.9901 181.428C85.1662 183.11 85.7261 184.736 86.6316 186.196C87.0986 186.937 87.6571 187.636 87.9874 188.439C88.5769 189.873 88.3856 191.503 88.9292 192.953C89.6478 194.87 91.6223 196.454 91.4333 198.479C92.3298 200.229 94.3092 201.088 96.2997 201.609L99.8671 202.543C100.55 202.721 101.264 202.902 101.96 202.772C102.655 202.643 103.319 202.1 103.301 201.434C101.552 201.063 99.746 200.668 98.3039 199.666C96.8618 198.664 95.8739 196.879 96.4211 195.274C96.6748 194.529 97.2146 193.67 96.7014 193.055C96.4076 192.702 95.8703 192.61 95.5389 192.289C95.022 191.788 95.1996 190.946 95.5712 190.342C95.9428 189.737 96.4799 189.197 96.6298 188.513C96.7055 188.131 96.655 187.736 96.485 187.381C96.3149 187.026 96.0336 186.729 95.6787 186.529C96.3402 186.294 96.9418 185.931 97.4444 185.464C97.9088 184.965 98.1233 184.197 97.758 183.63C98.8427 183.759 100.123 183.823 100.835 183.042C101.404 182.42 101.365 181.488 101.14 180.695C100.916 179.902 100.536 179.132 100.524 178.311C103.026 178.422 105.534 178.342 108.023 178.072C107.663 176.933 106.845 175.97 105.743 175.388C106.87 175.209 107.897 173.94 108.253 172.919C108.609 171.898 108.518 170.786 108.298 169.731C108.213 169.46 108.202 169.173 108.264 168.896C108.391 168.516 108.788 168.284 109.156 168.085L114.75 165.065C115.084 164.908 115.387 164.698 115.645 164.444C116.231 163.797 116.144 162.82 115.844 162.018C115.544 161.217 115.063 160.463 114.948 159.62C114.602 157.099 117.473 155.29 118.442 152.916C118.822 151.985 118.899 150.973 118.973 149.978C119.052 148.909 119.058 147.667 118.185 146.978C117.348 146.318 116.04 146.465 115.165 145.851C114.362 145.288 114.085 144.195 113.208 143.74C112.411 143.327 111.412 143.589 110.527 143.395C108.967 143.053 107.985 141.363 106.392 141.207C105.494 141.118 104.476 141.532 103.74 141.039C103.091 140.606 103.065 139.734 102.941 138.995C102.725 137.846 102.139 136.786 101.262 135.96C100.386 135.133 99.2606 134.579 98.0388 134.372C97.1121 134.232 96.1034 134.285 95.3151 133.806C94.5168 133.322 94.1508 132.414 93.5237 131.743C92.5131 130.661 90.9215 130.276 89.4305 129.947L83.3656 128.606C82.289 128.369 80.9012 128.242 80.3235 129.129C80.1525 129.466 80.0314 129.824 79.9636 130.193C79.7472 130.859 79.3115 131.444 78.7192 131.863C78.127 132.282 77.4087 132.514 76.6675 132.525C76.1592 131.71 75.3358 131.111 74.369 130.853C73.754 130.692 73.0957 130.674 72.5092 130.437C72.1897 130.291 71.9055 130.084 71.6738 129.831C71.4421 129.577 71.2679 129.282 71.1618 128.963C71.0557 128.644 71.0199 128.308 71.0567 127.976C71.0934 127.644 71.202 127.322 71.3756 127.03C71.7253 126.445 71.8603 125.768 71.7599 125.103C71.6595 124.439 71.3292 123.824 70.8199 123.353C69.7886 122.483 68.2966 122.273 66.9137 122.36C66.5515 121.617 67.1571 120.778 67.8097 120.239C68.4623 119.699 69.2548 119.168 69.3969 118.362C69.6205 117.093 67.8991 116.13 66.5921 116.508C65.285 116.886 64.4508 118.08 63.8994 119.256C63.583 119.931 63.314 120.642 62.8149 121.211C62.3158 121.78 61.5121 122.188 60.7519 122.005C59.6757 121.746 59.2601 120.544 59.0219 119.525C58.7023 118.156 58.3809 116.769 58.4478 115.369C58.5148 113.969 59.0167 112.532 60.1146 111.585C61.9036 110.041 64.6481 110.192 67.0625 110.439C66.4921 109.834 66.633 108.816 67.2434 108.247C67.5656 107.978 67.9527 107.787 68.3713 107.69C68.7898 107.594 69.2271 107.595 69.6453 107.693C70.3728 107.835 71.0282 108.203 71.506 108.739C72.1921 109.525 72.3872 110.587 72.9058 111.479C73.4244 112.372 74.5905 113.133 75.545 112.654C76.3694 112.241 76.5003 111.166 76.2951 110.309C76.0899 109.452 75.6541 108.619 75.7284 107.743C75.8703 106.072 77.7128 105.066 79.3387 104.378C80.9646 103.69 82.8263 102.764 83.0839 101.106C83.0927 100.781 83.1579 100.46 83.2769 100.155C83.4572 99.8855 83.7078 99.6639 84.0049 99.5113C88.7501 96.5633 93.5743 93.5793 98.9979 91.9685C99.28 91.8846 99.3132 91.9778 99.6007 91.9121C100.003 91.6935 99.7365 91.0886 99.3506 90.8449C98.9648 90.6012 98.449 90.4143 98.3511 89.9872C98.2792 89.6731 98.476 89.3648 98.5271 89.0472C98.6527 88.2667 97.6596 87.5461 96.8883 87.8582C96.4526 87.3158 97.3147 86.6855 98.0117 86.5051C100.105 85.9636 102.253 85.6336 104.421 85.5209C104.671 85.4835 104.927 85.5245 105.15 85.6375C105.514 85.8746 105.468 86.4183 105.21 86.7567C104.952 87.0951 104.551 87.3076 104.229 87.5939C103.878 87.9156 103.627 88.3218 103.505 88.7682C103.382 89.2147 103.393 89.6841 103.535 90.1254C104.666 90.6665 105.896 91.2236 107.15 91.0329C108.403 90.8423 109.515 89.5185 108.926 88.4613C108.378 87.4768 106.73 87.2547 106.446 86.1757C106.115 84.9123 108.017 83.7887 107.589 82.5514C107.401 82.0094 106.826 81.6904 106.385 81.2991C105.865 80.8193 105.51 80.2027 105.369 79.5303C105.228 78.8578 105.307 78.161 105.594 77.5312C104.876 77.65 104.138 77.6051 103.442 77.4004C102.746 77.1957 102.113 76.8371 101.595 76.3546C100.638 75.447 99.875 74.0153 98.5165 74.056C97.2699 74.0932 96.1962 75.4604 95.0305 75.0433C94.7438 74.9407 94.4414 74.7318 94.1635 74.8542C94.0725 74.9098 93.9961 74.9841 93.94 75.0715C93.884 75.1589 93.8499 75.2572 93.8401 75.3588C93.5439 76.6902 94.0535 78.2071 93.2816 79.3576C92.4417 80.6095 90.4988 80.7831 89.4805 81.912C88.9278 82.5248 88.7136 83.3506 88.2055 83.9966C87.6974 84.6427 86.6191 85.0535 86.0093 84.4905C86.309 83.9113 86.3908 83.2538 86.2415 82.6252C86.0921 81.9967 85.7203 81.4344 85.187 81.0303C84.6209 80.6831 84.0107 80.404 83.3706 80.1997C82.6554 79.9151 81.9751 79.5587 81.3414 79.1366C81.024 78.9566 80.7661 78.6971 80.5965 78.3873C80.4624 77.9993 80.4804 77.5789 80.6475 77.2024C80.9566 76.369 81.5021 75.6309 82.2249 75.0677C82.9477 74.5046 83.8205 74.1377 84.7489 74.0067C85.5607 73.9028 86.5056 73.9394 87.0429 73.3579C87.3271 73.0502 87.4763 72.5851 87.8889 72.4601C88.1529 72.4103 88.4269 72.442 88.6701 72.5505L91.7003 73.5532C92.0384 73.6967 92.4105 73.7545 92.7798 73.721C92.9628 73.6978 93.1298 73.6104 93.2472 73.4763C93.3646 73.3422 93.4237 73.1713 93.4126 72.998C93.3158 72.5249 92.5415 72.2979 92.6119 71.8208C92.6514 71.6662 92.7398 71.5264 92.8655 71.42C93.9591 70.3258 95.2965 69.4725 96.7819 68.921C98.2674 68.3696 99.8642 68.1337 101.458 68.2303C101.84 68.8208 101.236 69.5201 100.732 70.0242C100.229 70.5282 99.8244 71.4289 100.433 71.817C100.683 71.9366 100.96 71.9954 101.24 71.9878C101.986 72.0827 102.711 72.2894 103.387 72.6001C104.435 73.0285 105.462 73.4972 106.468 74.0062C106.38 73.3821 106.295 72.7246 106.546 72.141C106.798 71.5575 107.513 71.0997 108.138 71.327C108.74 71.546 109.049 72.2954 109.69 72.3641C110.546 72.4556 110.883 71.2674 110.526 70.5309C110.168 69.7944 109.461 69.1777 109.402 68.3701C109.362 67.8253 109.583 67.1495 109.12 66.8196C108.955 66.7206 108.768 66.6589 108.573 66.6396L97.0137 64.6399C96.3273 64.5211 95.3355 64.6121 95.305 65.2677C95.288 65.6336 95.6357 65.9955 95.4817 66.332C95.3174 66.691 94.7775 66.6582 94.3842 66.7852C93.774 66.9822 93.4678 67.6634 93.5264 68.2674C93.6337 68.8675 93.881 69.4379 94.2505 69.9377C93.4986 69.6421 92.3601 69.5877 91.6082 69.2921Z" fill="#3F3D56"/>
<path d="M82.3847 60.0675C81.6558 59.8408 80.8703 59.8302 80.1347 60.0373C79.3992 60.2443 78.7492 60.659 78.2728 61.2251C78.0825 61.4607 77.9226 61.7855 78.082 62.0406C78.3104 62.4063 78.8925 62.2619 79.3217 62.1311C79.9525 61.9192 80.6391 61.9038 81.2799 62.0871C81.6829 62.2172 82.0434 62.4471 82.4481 62.5722C82.6452 62.6497 82.8609 62.6753 83.0722 62.6463C83.2835 62.6172 83.4825 62.5347 83.6477 62.4075C83.9255 62.1411 83.9429 61.7271 83.9434 61.3541C83.9627 61.2293 83.952 61.102 83.9123 60.9816C83.8726 60.8611 83.8047 60.7505 83.7137 60.6578C83.5517 60.5696 83.3697 60.519 83.1827 60.5102C82.7639 60.4373 82.3853 60.2294 82.1122 59.9222" fill="#3F3D56"/>
<path d="M86.5528 58.9766C86.3897 58.9682 86.2271 58.9994 86.0805 59.0673C85.9339 59.1351 85.8084 59.2373 85.7159 59.3639C85.6235 59.4905 85.5673 59.6374 85.5526 59.7903C85.538 59.9433 85.5655 60.0972 85.6325 60.2373C86.1335 60.3657 86.6569 60.3978 87.1714 60.3316C87.428 60.2942 87.667 60.1861 87.8585 60.0212C88.0499 59.8562 88.185 59.6416 88.247 59.4046C87.6412 59.5082 87.0162 59.396 86.4937 59.0898" fill="#3F3D56"/>
<path d="M100.538 57.1545C99.174 57.4271 97.8494 57.8501 96.5914 58.4147C97.1845 58.629 97.6886 59.0167 98.0295 59.5207C98.3705 60.0247 98.5302 60.6183 98.4851 61.2141C98.4318 61.4428 98.438 61.6802 98.503 61.9063C98.6479 62.2365 99.0679 62.3605 99.4371 62.4453C100.1 62.635 100.793 62.7181 101.486 62.6911C101.832 62.674 102.169 62.576 102.465 62.4059C102.761 62.2358 103.008 61.999 103.182 61.7169C103.282 61.4491 103.4 61.1874 103.534 60.9332C104.419 59.6662 107.048 61.1982 107.999 59.9736C108.333 59.5422 108.303 58.8929 108.739 58.551C108.965 58.4021 109.226 58.3083 109.5 58.278C111.411 57.9211 113.341 57.6627 115.282 57.5039C116.202 57.4286 117.4 57.1182 117.408 56.2505C113.944 55.611 110.353 56.0652 107.192 57.5425C106.053 58.0787 104.547 59.2066 103.45 58.4957C103.039 58.2296 103.059 57.5129 102.494 57.2136C101.916 56.9076 101.151 57.032 100.538 57.1545Z" fill="#3F3D56"/>
<path d="M111.865 59.1459L113.491 59.4396C113.192 59.4271 112.893 59.4748 112.615 59.5794C112.337 59.6841 112.086 59.8433 111.878 60.0464C111.671 60.2496 111.512 60.492 111.412 60.7575C111.312 61.023 111.273 61.3054 111.298 61.5861C112.821 62.0642 114.481 61.5989 116.085 61.6625C117.689 61.726 119.555 62.8031 119.281 64.2901C119.199 64.7397 118.922 65.1891 119.066 65.6249C119.167 65.9304 119.453 66.1472 119.615 66.4285C119.952 67.0148 119.683 67.7564 119.257 68.2894C118.831 68.8223 118.259 69.2476 117.886 69.814C116.956 71.2227 117.484 73.0439 118.038 74.6176C118.198 75.2123 118.493 75.7671 118.904 76.2438C119.724 77.0636 121.061 77.1348 122.258 77.1513C123.129 77.1632 124.127 77.1228 124.678 76.4883C125.397 75.6599 124.894 74.3674 125.368 73.3952C125.798 72.5122 126.893 72.1334 127.886 71.8647C129.705 71.3725 131.558 70.9541 133.278 70.2106C135.413 69.2874 137.408 67.8488 139.755 67.7299C140.413 67.6966 141.088 67.7696 141.722 67.6001C142.356 67.4305 142.958 66.9151 142.91 66.2969C142.869 65.7688 142.394 65.3809 142.023 64.9828C141.651 64.5846 141.359 63.9724 141.701 63.5511L147.852 62.4711C147.416 61.3541 147.076 59.883 148.078 59.1559C148.439 58.8936 148.923 58.7887 149.231 58.4716C149.756 57.9311 149.492 56.9999 148.886 56.5402C148.281 56.0805 147.462 55.9738 146.686 55.9133C143.989 55.7027 141.277 55.8418 138.575 55.9811C133.292 56.2533 128.01 56.5255 122.728 56.7977C121.664 56.8525 120.437 56.7687 119.461 57.1098C118.636 57.3985 118.049 57.9285 117.104 58.1147C115.361 58.4585 113.443 58.2258 111.865 59.1459Z" fill="#3F3D56"/>
<path d="M140.994 71.2276C140.828 71.2029 140.658 71.2391 140.52 71.3285C140.429 71.423 140.375 71.5441 140.366 71.6716C140.261 72.2342 140.386 72.8135 140.716 73.2932C140.884 73.5285 141.116 73.7172 141.388 73.8398C141.66 73.9623 141.962 74.0142 142.263 73.9901C142.995 73.9023 143.534 73.3151 144.207 73.0286C145.245 72.5874 149.65 71.8996 146.603 70.3519C145.552 69.8185 144.874 70.2893 144.046 70.6406C143.104 71.0935 142.049 71.2965 140.994 71.2276Z" fill="#3F3D56"/>
<path d="M167.686 58.2721C167.33 58.4088 167.033 58.6524 166.84 58.9649C166.751 59.1236 166.73 59.3083 166.782 59.4809C166.834 59.6535 166.954 59.8007 167.119 59.8921C167.251 59.9374 167.392 59.9584 167.534 59.954L168.981 59.9947C169.595 60.0119 170.363 60.135 170.528 60.6919C170.651 61.1053 170.376 61.6367 170.708 61.9322C170.85 62.0356 171.021 62.0983 171.2 62.1126C171.677 62.2277 172.174 62.2428 172.658 62.1569C173.711 61.8914 173.157 61.2874 173.489 60.7495C173.996 59.9266 173.908 60.4247 174.802 59.9531C175.463 59.6048 176.316 58.9729 175.765 58.0851C174.806 56.5413 169.1 57.6089 167.686 58.2721Z" fill="#3F3D56"/>
<path d="M196.245 57.4959L195.405 57.6013C193.51 57.839 191.605 58.0789 189.78 58.6137C190.57 58.9073 191.399 59.0985 192.244 59.182C192.709 59.2034 193.17 59.2651 193.623 59.3664C194.429 59.5919 195.242 60.1744 196.02 59.876C196.503 59.691 196.661 59.2184 197.061 58.968C197.337 58.795 198.384 58.5151 198.501 58.3406C199.448 56.9294 196.973 57.4047 196.245 57.4959Z" fill="#3F3D56"/>
<path d="M199.935 61.0857C198.812 61.6756 197.771 62.3925 196.834 63.2203C196.439 63.5691 196.036 64.003 196.072 64.5112C196.119 65.1867 196.885 65.5785 197.548 65.8424L200.234 66.9114C200.56 66.4797 200.261 65.8837 199.925 65.4595C199.588 65.0352 199.188 64.5443 199.337 64.0338C199.506 63.4512 200.262 63.2526 200.896 63.1523C201.928 62.9887 204.713 63.0019 204.379 61.4377C203.984 59.5946 200.971 60.5411 199.935 61.0857Z" fill="#3F3D56"/>
<path d="M199.394 165.386C199.139 166.082 199.114 166.901 199.557 167.509C200.053 168.191 201.046 168.445 201.906 168.272C202.761 168.058 203.524 167.597 204.087 166.954C204.601 166.415 205.024 165.805 205.341 165.145C205.783 164.117 206.096 163.044 206.271 161.947L207.105 157.831C207.291 156.911 207.284 154.091 205.485 155.01C204.994 155.261 203.856 157.243 203.341 157.805C202.413 158.818 202.29 159.801 201.802 161.028C201.19 162.565 199.96 163.846 199.394 165.386Z" fill="#3F3D56"/>
<path d="M294.389 186.449C293.801 186.233 293.229 185.978 292.68 185.684C292.129 187.108 291.836 188.608 291.814 190.123L295.841 187.981C296.447 187.659 297.133 187.211 297.12 186.557C297.126 186.476 297.108 186.395 297.069 186.323C297.03 186.251 296.97 186.19 296.898 186.147C296.808 186.113 296.711 186.102 296.615 186.116C296.018 186.163 295.474 186.439 294.91 186.631C294.347 186.823 293.688 186.925 293.171 186.639" fill="#3F3D56"/>
<path d="M315.633 187.721C315.191 187.834 314.759 187.98 314.342 188.157C313.417 188.599 312.789 189.438 311.957 190.02C311.161 190.578 310.203 190.883 309.263 191.181C308.986 191.411 309.113 191.874 309.414 192.076C309.736 192.248 310.107 192.327 310.477 192.3C311.454 192.321 312.484 192.33 313.339 191.886C313.822 191.592 314.273 191.255 314.687 190.881C315.687 190.096 316.889 189.578 318.079 189.077C318.511 188.924 318.912 188.699 319.261 188.413C320.008 187.721 320.061 186.653 318.983 186.417C318.112 186.227 316.462 187.469 315.633 187.721Z" fill="#3F3D56"/>
<path d="M325.019 181.957C325.068 181.481 325 181 324.822 180.552C324.644 180.104 324.36 179.699 323.992 179.369C323.981 180.322 323.95 181.338 323.38 182.126C322.973 182.687 322.336 183.067 321.891 183.602C321.446 184.136 321.249 184.984 321.771 185.454C322.104 185.692 322.511 185.824 322.93 185.829C323.969 185.944 325.172 186.008 325.901 185.302C326.299 184.917 326.493 184.346 326.978 184.063C327.159 183.992 327.32 183.883 327.45 183.745C327.651 183.446 327.332 183.051 326.974 182.944C326.615 182.836 326.221 182.886 325.86 182.784C325.5 182.681 325.17 182.301 325.355 181.993" fill="#3F3D56"/>
<path d="M308.337 147.016C307.792 147.14 307.227 147.172 306.67 147.108C305.745 146.948 305.025 146.293 304.278 145.755C302.502 144.484 300.343 143.775 298.112 143.73C296.083 143.694 294.034 144.211 292.04 143.85C292.171 144.531 292.791 145.042 293.452 145.346C294.113 145.649 294.843 145.802 295.508 146.099C296.572 146.58 297.416 147.406 297.886 148.425C298.1 148.894 298.234 149.406 298.559 149.816C299.221 150.654 300.477 150.838 301.586 150.769C303.031 150.68 304.541 150.289 305.885 150.795C306.914 151.183 307.65 152.029 308.509 152.687C309.368 153.345 310.578 153.834 311.564 153.359C310.54 153.047 309.648 152.436 309.019 151.614C308.391 150.792 308.058 149.803 308.07 148.791C309.037 148.874 311.823 148.842 311.673 147.297C311.546 145.988 309.167 146.874 308.337 147.016Z" fill="#3F3D56"/>
<path d="M295.683 157.669C295.855 156.784 296.794 156.002 296.501 155.145C296.299 154.552 295.568 154.259 294.906 154.245C294.244 154.23 293.594 154.416 292.932 154.433C292.501 154.412 292.069 154.417 291.639 154.45C290.325 154.653 289.515 155.948 288.277 156.408C287.524 156.688 286.678 156.635 285.895 156.828C284.118 157.267 282.993 158.846 281.751 160.12C279.743 162.167 277.127 163.601 274.243 164.235C273.232 164.455 272.146 164.596 271.342 165.213C270.279 166.03 270.017 167.431 269.78 168.703C269.126 172.217 268.127 175.665 266.795 179.005L271.016 179.512C271.818 179.608 272.649 179.702 273.423 179.479C273.985 179.279 274.517 179.013 275.006 178.686C276.886 177.589 278.99 176.875 281.181 176.59C282.287 176.448 283.446 176.422 284.483 176.808C285.52 177.194 286.41 178.07 286.497 179.115C286.945 178.984 287.423 178.97 287.88 179.074C288.336 179.179 288.754 179.398 289.088 179.708C289.749 180.341 290.182 181.153 290.326 182.03C290.437 182.573 290.548 183.223 291.084 183.451C291.521 183.637 292.022 183.436 292.501 183.4C294.123 183.278 295.47 185.057 297.065 184.751C298.775 184.422 299.195 182.014 300.864 181.532C301.823 181.255 303.167 181.591 303.626 180.753C304.03 180.015 303.223 179.162 303.307 178.335C303.409 177.317 304.687 176.884 305.672 176.45C309.069 174.951 310.681 170.654 309.035 167.484C308.06 165.606 306.141 164.128 305.786 162.065C305.514 160.478 306.179 158.627 305.103 157.378C304.555 156.742 303.628 156.391 303.302 155.633C303.097 155.156 303.179 154.614 303.069 154.11C302.959 153.605 302.491 153.078 301.961 153.209C300.423 153.588 299.933 158.053 299.109 159.138C297.858 160.788 295.289 159.701 295.683 157.669Z" fill="#3F3D56"/>
<path d="M267.262 148.703C266.736 148.564 266.162 148.428 265.659 148.626C265.155 148.824 264.861 149.519 265.265 149.863C268.427 149.748 271.607 149.633 274.742 150.036C278.353 150.501 281.927 151.653 285.554 151.314C283.482 150.74 281.376 150.28 279.247 149.938L275.696 149.301C274.743 149.113 273.781 148.973 272.812 148.882C270.787 148.724 269.253 149.228 267.262 148.703Z" fill="#3F3D56"/>
<path d="M270.426 138.353C270.164 138.332 269.839 138.314 269.703 138.526C269.573 138.729 269.722 138.997 269.652 139.224C269.557 139.535 269.124 139.614 268.784 139.572C268.443 139.529 268.074 139.428 267.772 139.583C267.619 139.681 267.504 139.823 267.444 139.988C267.385 140.153 267.383 140.332 267.441 140.498C267.564 140.827 267.764 141.126 268.025 141.374C268.472 141.903 268.981 142.382 269.542 142.804C270.628 143.558 272.1 143.921 272.785 145.015C272.881 145.228 273.03 145.415 273.218 145.563C273.546 145.759 273.975 145.61 274.329 145.458L275.568 144.926C275.792 144.85 275.991 144.723 276.148 144.555C276.431 144.194 276.257 143.68 276.02 143.291C275.782 142.902 275.477 142.499 275.528 142.053C275.619 141.257 276.708 140.953 277.155 140.272C277.606 139.586 277.313 138.702 277.365 137.896C277.425 136.955 278.055 135.73 277.042 135.026C276.181 134.428 275.359 134.981 274.741 135.641C273.438 137.033 272.822 138.541 270.426 138.353Z" fill="#3F3D56"/>
<path d="M277.952 124.283C278.376 125.045 279.258 125.5 279.72 126.242C280.22 127.046 280.163 128.085 280.706 128.864C281.263 129.664 282.383 130.089 282.696 130.998C283.036 131.992 282.263 133.199 282.88 134.066C282.995 134.208 283.14 134.326 283.306 134.413C283.472 134.499 283.655 134.552 283.844 134.568C284.033 134.585 284.223 134.564 284.403 134.507C284.583 134.451 284.749 134.36 284.889 134.24C285.149 133.974 285.288 133.623 285.277 133.262C285.266 132.901 285.105 132.558 284.828 132.307C284.463 131.994 283.939 131.858 283.634 131.493C283.475 131.282 283.37 131.04 283.325 130.785C283.159 130.05 283.185 129.287 283.402 128.564C283.484 128.38 283.505 128.178 283.462 127.983C283.325 127.608 282.784 127.581 282.405 127.407C281.544 127.012 281.565 125.87 281.716 124.98C281.615 125.572 279.371 124.565 279.136 124.23C278.67 123.563 278.924 122.278 278.831 121.541C277.823 121.998 277.435 123.351 277.952 124.283Z" fill="#3F3D56"/>
<path d="M255.345 136.006C254.931 135.57 254.307 135.114 253.752 135.377C253.328 135.577 253.211 136.128 253.377 136.546C253.58 136.952 253.891 137.301 254.281 137.558C255.438 138.456 256.684 139.265 257.694 140.308C259.5 142.175 260.458 144.693 262.422 146.412C262.817 146.811 263.34 147.077 263.911 147.17C264.484 147.22 265.126 146.876 265.192 146.339C265.246 145.896 264.918 145.501 264.598 145.173C263.835 144.392 262.999 143.674 262.279 142.859C261.946 142.545 261.737 142.135 261.686 141.695C261.682 141.256 262.108 140.796 262.561 140.905C262.01 140.772 261.602 139.911 260.794 139.748C260.119 139.613 259.956 140.006 259.152 139.682C257.62 139.064 256.418 137.135 255.345 136.006Z" fill="#3F3D56"/>
<path d="M291.349 93.5639C290.91 93.4411 290.477 93.296 290.055 93.1292C288.917 92.8082 287.412 93.5943 287.563 94.7018C287.664 95.4376 288.393 95.9338 288.795 96.572C289.391 97.5186 289.232 98.7192 288.919 99.7792C288.842 100.107 288.696 100.418 288.488 100.692C288.199 100.981 287.853 101.215 287.469 101.381C285.933 102.191 284.578 103.273 283.479 104.568C283.36 104.687 283.276 104.835 283.238 104.995C283.184 105.368 283.584 105.641 283.81 105.953C284.312 106.646 283.949 107.578 283.999 108.415C283.991 108.533 284.016 108.651 284.07 108.758C284.125 108.865 284.208 108.957 284.311 109.026C284.613 109.17 284.972 108.925 285.136 108.645C285.68 107.718 285.27 106.23 286.292 105.783C286.485 105.698 286.719 105.662 286.848 105.503C287.052 105.25 286.855 104.875 286.959 104.573C287.114 104.118 287.775 104.098 288.282 104.118C289.156 104.153 290.029 104.043 290.862 103.795C291.189 103.722 291.486 103.561 291.717 103.33C292.022 102.972 291.995 102.463 291.934 102.008C291.628 99.7373 290.863 97.5431 289.68 95.5432C290.577 95.6509 291.553 95.7442 292.327 95.3047C292.761 95.0586 293.281 94.3227 293.066 93.8217C292.726 93.0296 292.112 93.6963 291.349 93.5639Z" fill="#3F3D56"/>
<path d="M176.341 106.05C176.448 106.591 176.554 107.161 176.365 107.682C176.176 108.203 175.583 108.639 175.022 108.479C174.587 108.355 174.336 107.944 174.027 107.631C172.309 105.887 168.433 106.897 167.372 104.74C166.939 103.859 167.233 102.805 166.938 101.876C166.752 101.339 166.381 100.875 165.884 100.557C165.387 100.24 164.792 100.087 164.192 100.122C163.645 100.196 163.112 100.346 162.611 100.565C159.256 101.829 155.734 102.657 152.141 103.027C151.458 103.066 150.783 103.182 150.129 103.371C148.654 103.874 147.646 105.16 146.929 106.472C146.211 107.784 145.682 109.204 144.72 110.37C143.709 111.595 142.293 112.452 140.972 113.38C140.463 113.689 140.039 114.106 139.735 114.599C139.449 115.151 139.465 115.794 139.487 116.409L139.757 123.872C139.792 124.832 139.835 125.827 140.293 126.686C140.863 127.759 141.991 128.461 142.773 129.409C143.571 130.383 143.987 131.586 143.95 132.815C143.933 133.309 143.881 133.894 144.29 134.204C144.539 134.356 144.831 134.434 145.128 134.43L155.867 135.257C157.757 135.402 159.85 135.641 161.084 136.994C161.666 137.633 162.133 138.551 163.025 138.619C163.407 138.649 163.78 138.501 164.162 138.473C165.127 138.401 165.975 139.089 166.51 139.848C167.32 141.004 167.688 142.384 167.553 143.763C167.465 144.628 167.179 145.469 167.118 146.336C166.884 149.636 169.859 152.503 169.917 155.809C169.951 157.754 168.969 159.572 168.011 161.296C169.557 163.497 168.291 166.428 168.907 169.001C169.49 171.442 171.655 173.353 172.195 175.803C172.442 176.925 172.456 178.305 173.508 178.883C173.97 179.094 174.482 179.19 174.994 179.162C178.087 179.197 181.144 178.542 183.916 177.253C185.217 176.646 186.565 175.74 186.793 174.391C186.976 173.304 186.389 172.088 186.986 171.14C187.69 170.024 189.492 170.112 190.528 169.254C192.207 167.862 190.898 165.206 191.578 163.2C192.19 161.398 194.295 160.44 195.339 158.822C195.75 158.126 196.045 157.375 196.213 156.595C196.691 154.731 196.989 152.83 197.102 150.916C197.13 149.752 197.221 148.591 197.376 147.437C198.501 140.865 205.413 136.464 207.657 130.15C207.871 129.547 207.972 128.744 207.401 128.403C207.062 128.251 206.679 128.213 206.314 128.296L201.363 128.883C200.749 128.956 200.097 129.024 199.532 128.784C198.967 128.543 198.563 127.872 198.862 127.362C199.703 125.93 197.973 124.121 197.205 122.653C195.135 118.702 192.671 114.945 189.845 111.433C189.664 111.252 189.551 111.021 189.522 110.774L190.927 110.818C190.453 109.218 189.67 107.467 188.017 106.882C187.085 106.552 186.053 106.666 185.059 106.717C182.212 106.863 179.159 106.459 176.341 106.05Z" fill="#3F3D56"/>
<path d="M185.061 69.9948C185.806 70.7386 186.641 71.5273 187.719 71.6569C189.624 71.8859 190.993 70.0349 191.864 68.427C191.897 68.8369 192.098 69.2188 192.425 69.4915C192.752 69.7642 193.179 69.9061 193.616 69.8871C194.086 69.8127 194.535 69.6479 194.934 69.4028C198.706 67.4647 202.932 66.4378 207.231 66.4143C207.19 66.1082 207.271 65.7985 207.458 65.545C207.645 65.2916 207.926 65.1123 208.246 65.0418C209.12 64.8789 209.907 65.5893 210.329 66.3273C210.75 67.0653 211.013 67.9207 211.683 68.4731C212.353 69.0255 213.65 69.0015 213.915 68.2015C214.169 67.4336 213.318 66.7786 212.611 66.3259C211.904 65.8731 211.158 65.0351 211.635 64.3669C215.247 63.6153 218.882 62.8607 222.578 62.7113C223.207 62.7319 223.834 62.6304 224.42 62.413C224.984 62.153 225.432 61.5627 225.28 60.9899C224.473 61.1681 223.629 61.1165 222.853 60.8416C222.078 60.5667 221.407 60.0809 220.927 59.4463C226.056 59.0484 231.511 58.7093 236.056 60.978C236.602 62.0788 233.822 62.9946 234.566 63.9874C234.803 64.3041 235.278 64.3412 235.69 64.3484C238.849 64.4035 242.026 64.4576 245.149 64.0093C246.29 63.8455 247.443 63.6142 248.588 63.747C250.497 63.9683 252.129 65.1654 254.007 65.5557C254.771 65.7145 255.628 65.7199 256.272 65.3021C256.916 64.8842 257.193 63.9328 256.665 63.3896C258.433 61.7608 261.367 62.1645 263.699 62.9443C266.032 63.7241 268.241 64.9816 270.709 65.1554C272.479 65.28 274.274 64.8325 276.023 65.117C277.122 65.2957 278.145 65.7554 279.219 66.0378C281.251 66.5719 283.4 66.4592 285.51 66.4849C290.892 66.553 296.216 67.5474 301.217 69.4189C301.867 69.618 302.463 69.9491 302.963 70.3887C303.428 70.8571 303.666 71.5851 303.353 72.1546L298.185 71.4448C298.672 72.3458 299.932 72.4994 300.955 72.8103C301.977 73.1211 303.038 74.1831 302.423 75.0122C301.315 74.6804 300.311 75.7222 299.751 76.6807C299.191 77.6392 298.508 78.7871 297.347 78.8455C296.307 78.8978 295.049 78.0652 294.371 78.8086C295.307 79.9194 296.109 81.1249 296.762 82.4027C297.432 83.7145 297.909 85.3675 297.004 86.5477C296.861 86.7584 296.645 86.9159 296.393 86.9932C295.653 87.1691 295.173 86.3188 294.643 85.8034C293.975 85.154 292.964 84.97 292.059 84.6654C291.154 84.3609 290.201 83.7617 290.13 82.8606C290.086 82.3 290.401 81.7789 290.633 81.2607C291.023 80.3874 291.193 79.4414 291.131 78.496C291.08 77.7355 290.854 76.9444 290.273 76.4131C289.692 75.8817 288.689 75.7131 288.065 76.1998C287.774 76.4269 287.541 76.7901 287.163 76.8037C286.495 76.8277 285.982 75.7333 285.445 76.1069C285.508 76.505 285.42 76.9112 285.197 77.2546C283.594 78.5654 281.131 78.0108 279.064 78.4739C278.081 78.7383 277.14 79.1246 276.266 79.6226C275.939 79.7541 275.66 79.9737 275.466 80.2537C275.208 80.725 275.492 81.3287 275.947 81.6421C276.429 81.9201 276.971 82.094 277.534 82.1512C280.053 82.5998 282.61 83.2943 284.599 84.8157C286.589 86.3372 287.893 88.8523 287.264 91.1894L282.295 86.7258C282.483 88.6 282.59 90.4793 282.616 92.3638C282.648 92.7317 282.594 93.1018 282.458 93.4482C282.104 94.1837 281.144 94.4312 280.303 94.5936C280.069 94.6354 279.847 94.7233 279.651 94.8514C279.456 94.9796 279.292 95.1451 279.169 95.3372C279.047 95.5293 278.969 95.7436 278.941 95.9659C278.913 96.1883 278.935 96.4137 279.006 96.6274C279.305 97.5433 280.051 98.2575 280.733 98.969C281.416 99.6806 282.087 100.489 282.177 101.444C282.266 102.398 281.5 103.474 280.483 103.407C279.713 103.357 279.141 102.709 278.812 102.051C278.483 101.394 278.288 100.662 277.794 100.103C276.299 98.413 272.94 99.1372 271.601 97.3352C271.26 97.6993 271.023 98.1393 270.913 98.6136C270.804 99.0878 270.825 99.5805 270.975 100.045C271.598 99.6783 272.451 100.019 272.919 100.552C273.387 101.085 273.608 101.768 273.976 102.366C274.472 103.174 275.261 103.889 275.33 104.82C275.312 105.171 275.318 105.524 275.349 105.875C275.472 106.439 275.979 106.843 276.33 107.314C277.148 108.411 277.108 109.917 276.581 111.16C276.054 112.404 275.107 113.444 274.169 114.451C272.531 116.211 270.86 117.961 268.918 119.422C268.364 119.839 267.773 120.25 267.428 120.833C267.083 121.416 267.065 122.234 267.595 122.678C267.216 122.696 266.535 122.871 266.156 122.889C266.023 121.458 265.994 120.02 266.069 118.586C264.572 117.91 262.96 119.72 263.153 121.271C263.346 122.821 264.539 124.066 265.389 125.408C266.01 126.389 266.472 127.533 266.264 128.658C266.057 129.783 264.989 130.821 263.779 130.722C261.854 130.564 261.049 127.967 259.143 127.669C258.975 127.632 258.798 127.649 258.641 127.716C258.358 127.862 258.309 128.218 258.293 128.521C258.215 130.008 258.148 131.555 258.765 132.926C259.669 134.932 262.003 136.617 261.513 138.746C258.876 137.593 257.504 134.813 256.882 132.142C256.259 129.471 256.155 126.667 255.039 124.142C254.192 125.163 252.41 124.319 251.636 123.248C250.902 122.232 250.45 121.057 249.737 120.028C249.025 118.999 247.934 118.077 246.629 118.02C245.261 117.961 244.075 118.844 243.031 119.677C242.173 120.363 241.292 121.076 240.791 122.024C240.061 123.403 240.252 125.029 240.217 126.569C240.179 128.234 239.803 129.991 238.596 131.21C237.389 132.429 235.161 132.854 233.829 131.755C233.134 131.181 232.798 130.325 232.498 129.502C231.053 125.537 229.849 121.498 228.893 117.404C228.669 118.339 227.796 119.543 226.963 118.992C226.776 118.845 226.624 118.661 226.518 118.454C224.963 115.976 222.083 114.49 219.173 113.598C216.263 112.707 213.201 112.292 210.323 111.312C208.711 110.763 207.17 110.042 205.733 109.163C205.366 109.669 205.152 110.259 205.113 110.87C205.074 111.481 205.212 112.091 205.512 112.634C206.15 113.697 207.595 114.312 208.831 113.94C209.47 113.748 210.01 113.331 210.644 113.125C211.278 112.919 212.129 113.021 212.406 113.595C212.672 114.144 212.27 114.809 212.469 115.383C212.772 116.257 214.175 116.325 214.665 117.12C215.03 117.712 214.73 118.498 214.209 118.975C213.688 119.453 212.993 119.715 212.357 120.047C210.294 121.126 208.826 122.967 207.023 124.399C205.22 125.832 202.676 126.878 200.527 125.959C201.039 123.521 197.949 121.73 197.381 119.303C197.194 118.504 197.291 117.655 197.024 116.877C196.637 115.749 195.573 114.974 194.7 114.12C193.642 113.073 192.817 111.836 192.275 110.484C191.733 109.133 191.484 107.692 191.543 106.249C191.591 105.245 191.787 104.226 191.544 103.248C191.3 102.27 190.439 101.324 189.372 101.368C186.935 101.469 183.864 101.64 182.585 99.6864C182.129 98.9893 181.93 97.9682 182.59 97.4341C183.056 97.0574 183.743 97.0928 184.354 97.1494L189.846 97.6572C191.13 97.776 192.519 97.8741 193.621 97.2428C194.723 96.6115 195.201 94.9359 194.18 94.1932C193.435 93.6506 192.098 93.68 191.882 92.8172C191.701 92.0987 192.547 91.2834 192.09 90.6828C191.763 90.2523 191.026 90.3717 190.58 90.6945C190.133 91.0173 189.809 91.4893 189.31 91.7337C188.434 92.1625 187.386 91.7544 186.444 91.4771C185.501 91.1998 184.237 91.1763 183.78 91.9995C183.268 92.9201 184.233 94.1265 183.726 95.049C183.055 96.2687 180.782 95.5743 179.84 96.6235C178.758 97.8273 180.575 99.6224 180.211 101.16C179.745 101.377 179.228 101.477 178.709 101.449C178.19 101.422 177.688 101.269 177.251 101.004C176.821 100.729 176.479 100.35 176.26 99.9072C176.041 99.4641 175.954 98.9735 176.008 98.4877C176.099 97.7958 176.482 97.0896 176.225 96.4358C176.017 95.9072 175.453 95.5925 174.928 95.3199L169.591 92.5476C169.096 93.4117 169.722 94.4829 170.506 95.1319C171.289 95.7809 172.27 96.2697 172.785 97.1238C173.111 97.7156 173.184 98.4018 172.989 99.0425C172.795 99.6831 172.347 100.23 171.738 100.571C171.662 100.62 171.575 100.654 171.484 100.669C171.393 100.684 171.299 100.68 171.209 100.658C171.124 100.611 171.05 100.548 170.991 100.473C170.932 100.399 170.89 100.314 170.866 100.224C169.925 97.9586 168.511 95.7251 166.251 94.5418C163.99 93.3584 160.743 93.6017 159.26 95.5951C158.908 96.0686 158.672 96.6083 158.365 97.1089C156.736 99.7684 153.243 101.028 149.979 100.946C149.66 100.962 149.342 100.892 149.064 100.743C148.537 100.401 148.561 99.6744 148.641 99.0766L148.984 96.5397C149.053 96.0302 149.153 95.4671 149.581 95.1491C150.186 94.7009 151.058 94.9838 151.828 94.9733C152.411 94.9477 152.972 94.754 153.435 94.4186C153.897 94.0832 154.238 93.6223 154.413 93.0984C154.568 92.5692 154.567 92.0103 154.41 91.4816C154.252 90.953 153.944 90.4748 153.519 90.0985C153.166 89.7869 152.693 89.3955 152.879 88.9755C152.953 88.8593 153.054 88.7598 153.174 88.6841C153.293 88.6084 153.429 88.5582 153.572 88.5371C154.955 88.1595 156.416 88.0606 157.776 87.6151C159.136 87.1696 160.455 86.2582 160.777 84.9386C160.876 84.5342 160.92 84.0444 161.307 83.8439C161.501 83.7669 161.709 83.7269 161.919 83.7262C162.657 83.6276 163.328 83.2731 163.801 82.7325C164.274 82.1919 164.515 81.5043 164.476 80.8052C165.128 80.3771 166.041 80.692 166.672 81.1474C167.302 81.6027 167.859 82.2043 168.626 82.4006C170.056 82.7664 171.437 81.5764 172.919 81.5709C173.542 81.5686 174.187 81.7757 174.774 81.5771C175.368 81.3757 175.723 80.8196 176.179 80.4088C176.635 79.9979 177.435 79.7473 177.857 80.1899L177.498 77.6926C178.22 77.8641 178.973 77.8884 179.706 77.7638C180.439 77.6392 181.136 77.3686 181.748 76.9702L177.113 75.4979C176.952 75.46 176.803 75.3852 176.68 75.28C176.343 74.9389 176.677 74.4073 176.951 74.0195C177.607 73.0919 177.717 71.5638 176.639 71.102C175.903 70.7867 175.058 71.1651 174.352 71.5353L170.969 73.3087C170.861 73.9132 171.648 74.2558 172.135 74.663C172.43 74.9094 172.639 75.2338 172.734 75.5937C172.829 75.9536 172.806 76.3321 172.668 76.6795C172.53 77.027 172.284 77.327 171.961 77.5404C171.638 77.7537 171.255 77.8703 170.86 77.8748C171.083 78.1471 171.238 78.463 171.313 78.7991C171.388 79.1353 171.382 79.483 171.295 79.8167L169.019 79.9706C168.763 80.0189 168.498 79.9702 168.281 79.8351C168.037 79.6318 168.07 79.2756 168.014 78.9742C167.878 78.2466 167.12 77.7366 166.346 77.6059C165.573 77.4751 164.781 77.6427 164.016 77.8082C163.69 77.9182 163.333 77.9105 163.014 77.7865C162.831 77.6746 162.691 77.5094 162.617 77.3162C162.282 76.5508 162.595 75.6512 163.135 74.9967C163.674 74.3421 164.412 73.8636 165.075 73.3187C166.661 72.0109 167.826 70.3123 168.439 68.4148C169.692 67.9213 170.989 67.2507 172.242 66.7571C174.174 65.8376 176.34 65.443 178.498 65.6177L182.742 65.6939C183.998 65.7164 185.288 65.7453 186.45 66.1956C187.612 66.6459 188.633 67.6198 188.713 68.7987C188.737 68.9322 188.725 69.0692 188.677 69.197C188.63 69.3248 188.548 69.4391 188.441 69.5292C188.277 69.6134 188.091 69.6528 187.904 69.6429C186.733 69.6816 186.233 69.9561 185.061 69.9948Z" fill="#3F3D56"/>
<path d="M151.237 82.4975C151.402 82.3499 151.522 82.1623 151.581 81.9552C151.641 81.7481 151.639 81.5295 151.575 81.3234C151.172 81.1771 150.733 81.1395 150.308 81.2149C149.883 81.2904 149.489 81.4758 149.17 81.7504C148.919 81.9894 148.702 82.2587 148.526 82.5511C147.968 83.4064 147.475 84.428 147.798 85.384C147.824 85.4882 147.873 85.5865 147.94 85.673C148.007 85.7595 148.092 85.8325 148.19 85.8877C148.335 85.9424 148.491 85.9654 148.646 85.955C149.261 85.9542 149.874 85.9187 150.484 85.8486C150.859 85.8056 151.294 85.7062 151.438 85.3787C151.629 84.9482 151.168 84.4609 151.302 84.0122C151.391 83.8115 151.524 83.6313 151.694 83.4842C151.779 83.4102 151.844 83.3187 151.884 83.217C151.924 83.1153 151.938 83.0062 151.926 82.8983C151.872 82.6878 151.529 82.5683 151.405 82.7512" fill="#3F3D56"/>
<path d="M154.422 78.6151C153.876 78.4973 153.314 78.4641 152.757 78.5168C152.633 78.5134 152.511 78.5395 152.402 78.5926C152.296 78.6662 152.219 78.771 152.183 78.8903C152.065 79.2453 152.094 79.629 152.264 79.9649C152.434 80.3008 152.732 80.5642 153.099 80.7027C153.299 80.746 153.491 80.8184 153.667 80.9173C154.138 81.2609 153.838 81.9631 153.927 82.5172C154.027 83.1394 154.668 83.6617 154.55 84.2813C154.458 84.7693 153.903 85.1558 153.992 85.6445C154.086 86.1563 154.777 86.31 155.327 86.351C155.647 86.4036 155.975 86.3682 156.273 86.2491C156.572 86.057 156.785 85.7676 156.87 85.4367C157.095 84.8059 157.19 84.1403 157.149 83.476C157.147 83.1738 157.066 82.8768 156.914 82.6106C156.748 82.3997 156.564 82.2018 156.364 82.0189C155.309 80.8653 156.42 79.1445 154.422 78.6151Z" fill="#3F3D56"/>
<path opacity="0.8" d="M293.154 168.988C293.154 168.988 212.351 125.385 177.564 133.646C177.564 133.646 103.84 141.105 95.2954 157.513C95.2954 157.513 71.8599 88.6667 63.3157 86.3719" stroke="#5885BC" stroke-width="2" stroke-miterlimit="10"/>
<path opacity="0.8" d="M95.2954 157.513C108.844 123.549 230.904 85.9129 230.904 85.9129C213.571 90.0437 177.564 133.646 177.564 133.646C177.564 133.646 101.398 81.5526 63.3157 86.3718C63.3157 86.3718 231.026 91.5353 293.154 168.988" stroke="#5885BC" stroke-width="2" stroke-miterlimit="10"/>
<path d="M63.3156 89.6994C65.2706 89.6994 66.8554 88.2096 66.8554 86.3718C66.8554 84.5341 65.2706 83.0443 63.3156 83.0443C61.3607 83.0443 59.7759 84.5341 59.7759 86.3718C59.7759 88.2096 61.3607 89.6994 63.3156 89.6994Z" fill="#5885BC"/>
<path d="M95.2953 160.841C97.2503 160.841 98.8351 159.351 98.8351 157.513C98.8351 155.675 97.2503 154.186 95.2953 154.186C93.3404 154.186 91.7556 155.675 91.7556 157.513C91.7556 159.351 93.3404 160.841 95.2953 160.841Z" fill="#5885BC"/>
<path d="M230.904 89.2405C232.859 89.2405 234.444 87.7507 234.444 85.9129C234.444 84.0751 232.859 82.5853 230.904 82.5853C228.949 82.5853 227.364 84.0751 227.364 85.9129C227.364 87.7507 228.949 89.2405 230.904 89.2405Z" fill="#5885BC"/>
<path d="M293.154 172.315C295.109 172.315 296.694 170.825 296.694 168.988C296.694 167.15 295.109 165.66 293.154 165.66C291.2 165.66 289.615 167.15 289.615 168.988C289.615 170.825 291.2 172.315 293.154 172.315Z" fill="#5885BC"/>
<path d="M177.564 136.974C179.519 136.974 181.103 135.484 181.103 133.646C181.103 131.809 179.519 130.319 177.564 130.319C175.609 130.319 174.024 131.809 174.024 133.646C174.024 135.484 175.609 136.974 177.564 136.974Z" fill="#5885BC"/>
</g>
<defs>
<clipPath id="clip0_3_74">
<rect width="348" height="243" fill="white"/>
</clipPath>
</defs>
</svg>
